<svg version="1.2" xmlns="http://www.w3.org/2000/svg" viewBox="0 0 443 515" width="443" height="515">
	<style>
		.s0 { fill: #000000 } 
	</style>
	<g>
		<path fill-rule="evenodd" class="s0" d="m101 11l-14 13-9 16-22 21-6 11-5 19-14 17-5 12-1 22 4 21-1 30 4 20 10 18 10 10 13 8-3 64 3 25 4 16-3 11-16 28-16 16-23 14-11 4v73h29l12 5 12 8-1-17 6-12 10-7h11l6 3 5 5 3 12-2 6-3 3-8 3-6-4-1-4 4-4 3 3h5l2-2v-7l-3-4-5-2-9 1-5 5-1 11 4 7 5 4h65l-4-15 1-3 3 3 6 15h4l-6-19 1-3 10 13 3 9 7 1-8-21-5-9 1-2 10 11 12 20 28 1 1-1-14-15-23-33-15-28 1-2 33 48 11 13 18 16 29 2-11-3-4-3h15l16-5-19 1-18-5-18-10-26-26-26-38 1-2 28 32 19 15 13 7 24 7h19l10-2 12-7 1 3-4 9-9 8 7-1 5-3 1 3-6 6-8 4 6 1 10-7v9l-5 6h16l-1-16-10-41 1-4 8 13 5 15 3 18v15h26v-19l-4-23-7-23-9-19 1-1 13 13 10 17 8 19 4 18-1 10-4-15-9-23 5 21 1 25h25l-2-17-6-20-9-17-7-9 1-2 13 14 10 18 6 18 2 15h10l-4-17-8-18-11-17-15-15 1-1 17 13 12 15 9 21 4 19h51l-27-27-28-23-25-18-39-21-9-7 9-11 3-7v-9l-5-10v-3l5-9 1-9-1-5-6-10 4-16v-11l-7-8 3-5 1-8-1-29 4-13v-15l16-15 7-10 8-23 10-22 2-9-1-28-13-39-8-16-7-9-12-11-20-13-15-13-23-12-11-4-26-5-26-1-29-9h-26l-13 2-14 4zm172 125l10 7 14 16 8 15 3 10-2 2-8-3h-15l-13 4-3 4-1-7-3 21 5 23 9 25-1 5-5 5h-4l-6-6-3-1h-14l-8 7h-3l-3-7 2-8 7-7h5l5 3-4-5h-4v-3l-10 6-5 5-5 9 4 6v5l-8 8-18 6-14 14-22-26-3-8v-6l-3-6 1-1 4 4 2 10 4 8 4 4v-10l-4-11-4-4-15-9-5-6-4-9-1-17 4-15 6-13 10-11 14-9 12-5 11-1h-2l-2-2 1-1 12-1 10 2-3-2-15-3-1-1 3-2h5l20 7-2-3-6-3-10-2-2-2 1-1 10 1 15 6-5-5-10-5 3-1 10 3 10 6v-2l-3-3-12-5-2-2 1-1 11 2 10 6h2l-10-9 1-1h21zm-101 117l5 12-1 13 2 3 1-17zm79-81l-3-5-3-1 4 7v5l-4 4-9-4-8 1-19-5h-17l-15 3-18 10-5 6v2l11-6 23-7h18l6 1 6 4-2 2-5-2-13 1-11 3-18 8-11 2-8 4-4 6v3l2-5 4-3 2 2 2-1 1 3 13 1 7 7 10 1 12 4 3-2-5-5-11-4h-9l-4-2 3-3 9-1 14-9 1 12 7 5h6l5 3-4 2-9 14 4-2v3l3-4 11-6 3 4 8-8 6 4 2 5-1 2 3-1 3 3 6-7v-7l-8-20v-3l6-10zm-56-67l-2 2h-7l-20 5-29 15-38 26-17 17-8 13h-2l4-10 6-9 17-19 39-29 27-13-25 9-27 16-1-2 20-20-7 3-9 6-37 34-1-2 13-22 17-18 10-7 13-5 16-1 11 2 15 6zm-115-48l18-9 29-6h73l-10-3-28-3h-31l-21 3-5 2-4-1 5-3 17-5 31-4 44 1 31 4 43 11 24 9 10 6 14 13 9 16 3 17 7 14 5 19v18l-2 5-3-19-10-21 5 17-1 5-13-25-7-9-14-13-37-26-21-10-16-5 18 7 24 13 21 16 18 17 9 11 9 17 8 25 2 14v18l-7 13-7 6-1-1 2-4 1-9-1-12-8-25-20-41-8-11-10-10 23 37-1 2-19-24-28-25-28-18-23-11-27-8-19-3h-31l-19 3-21 6zm69 160l-1 3 3 1zm90 2l3-2 4 3-6 1zm1-14l7 9-1 1h-6zm-18-1l4 3 2 6-1 2h-6l-2-2v-5zm-10-4l3 2-2 4-3-2zm45-38l1 4 4 3 1-3-4-4zm10-11l3 7h3l-1-3zm21-52l7 8 14 23 6 6-2-6-10-16zm17-18l6 8 6 1-6-8zm-229-13l18-10 26-6h32l24 4 30 11 33 19 24 20 20 21 8 11-1 1-36-30-17-12-35-20-26-11-27-7-29-1-25 4-16 7zm151-29l3 2 28 7-9-5zm-202 420h14l7 6 2 4v11l-5 6-5 3h-12l-4-2-6-8v-10l2-4zm193 6l2-1 2 3-1 1zm-194 3l-1 7 4 5 10 1 4-3 1-6-2-4-3-2-9-1zm-2-18l8-5 5-1 15 3 10 6 18 20-3 1-14-3-3-7-12-10-10-3zm243-19l1 14 3 13-1 14-4 3-13 3h-11l-13-3v-2h9l12-6-6 1-14-6v-2l13 1 6-3-25-4 7-4h7l6 3 9-2 7-7 5-9v-3zm-12-8l1 1-3 3-3 7-5 3v-5zm33-5l7 7 9 23 6 31-1 23-4-22-9-34-8-23zm-50-1l1 1-9 9-1 6-2 1-2-3 1-5-2-1v-2l8-6zm-188-7l5 20 7 15-1 1-9-8-4-9v-14zm189-8l1 4-2 2-1-4zm-7-2l1 5-4 6-1-2zm-21-6h3l2 3-3 1zm-11 1l-3 13-3 4-5 3h-10l-9-7 1-3 4-2v3l2 2 6 2-4 2 9-1 7-8 3-11zm-133-5l2 5v7l6 31 7 22-1 2-6-11-7-26-2-12zm146-1l6 3 6 8v7l-2 6-6 5-4-1-1-4 4-1 4-4 1-6-1-4-8-7zm-22-2l2 3-1 9-2 1-1-11zm-116-8l10 37 3 20-1 13-10-29-3-14-1-24zm216-3l18 16v5l-7 7-3-1-2-3 4-3 1-3 2 3 1-5-12-10-3-4zm-122-1v6l-2 1-3-4zm6-1l6 2v8l-3 4-3-1 3-8-2-2h-4zm22-16l1 18 3 5 11 11-1 2-14-13-5-8v-9zm49-1l2 3 3 16 6 13-1 10-8 11-2-3 4-5 1-9-8-16-2-8v-8l4-1zm-36-1l2 1v17l3 7 5 6-1 2-9-9-2-5-1-10zm12-3v16l5 10 12 10 3 5-1 3-7-8-11-9-4-7-1-13zm31-3l3 4 1 5 2-4 6 8 12 28-1 10-2 4-6 7-6 3-3-1 11-8 3-7v-4l-4-9-10-9-6-19zm4-6l16 14 1-3-3-4 2-2 5 8 1 6 10 25 1 7-3 9-5 5-1-2 3-5-1-19-6-13-21-25zm39-1l9 9 2 4-1 3-11-14zm-58-2l1 5-5 11v12l7 18-1 3-9-12-4-13 3-11zm-30-1l-1 4-4 5-18 8-3 6-2-2v-3l3-5 16-6 8-8zm-39 1l-2 1 4 1-2 2h-8l-3 3v8l3 3-2 1-5-7 1-8 8-6zm108-6l5 2 11 11 8 11 4 8-5 7-1-3h-2l2-6-2-5-7-11-14-13zm-29 0l2 1 3 10-1 5-4-7zm-14 0l1 2-6 9-3-1zm-18-1l1 2-6 14-1-5zm11-1l1 2-11 12v-6zm-21 1l-4 7-13 6-6 1-8 10-1-1v-4l8-9 16-5 7-6zm-101-6l2 3 2 30 4 22 8 23 7 14 5 20v20l-2 7-6 10-1-4 2-5v-25l-2-10-6-17-9-18-2-10v7l13 39v16l-6-26-8-20-5-19v-34zm62-2l1-1 5 5h-3zm93-3l8 13 16 12 5 10-1 6-8-14-14-11-7-10zm-115 1l1-1 8 10 3-5v5l-2 2-6-2zm-21-1l6 12 5 25v37l-2 3-4-15-1-27-3-27-2-6zm162-1l1-1 6 6 3 1 5 6-2 1zm-125-8l1 2-4 6-3-5zm3 1l4-3 4 1-7 3zm110-4h3l4 3v10l-3 5-4-1-4-10h-3zm-56-1l4-1 9 2 2 3-1 5-5 5h-10l-3-5v-4zm-39-1l2 2-2 7-3 3-1-3 2-7zm-70-3l9 13 7 29-1 38 5 18 5 9-1 2-7-9-5-10-4-14-3-24-1-30-5-19zm113-1l3-3 6-2 25-1 14 2 4 4v2l-3 3-7 2-27-6zm-24-10l1 6-5 16v-13zm-22 1l-2 6-4 4-5 2-6-1 15-12zm-17-9l3 1 1 4-2 2-4-2v-3zm7-3l3 4v4l-2 3-2-5zm135-2l3 5v12l-2-1-3-11zm-87-1l1 2-7 14-3 3-1-2 3-10zm6-1v3l1-1 1 3-6 8-1-4zm27 0l2-1 4 7 14 2h-15l-4-4zm18 2h4l-2-1 2-2 4 1-2-2 2-1 8 5 8 10v-3l-4-6 2-1 5 7 2 16 5 7-2 4-8-12v-8l-4-3-3-6-5-4h-3l3 3-1 1-6-2-6 1-1-1zm-27-5l1 1-3 6-10 10-1-1 7-11zm-87 2l4-1 3-3 1 5 4 2-4 1zm114-5l1-1 4 2-4 1zm-111-2l1 1-5 6-1-2zm-79-17l3 12v65l-2 12-2-3-2-14v-42zm29-12l5 2 1 3h-4l2 5-3 2-1 3-4-3 3 7 4 2v2l10 2-6 8v7l3 6 9 7h9l3-4v-7l-2-6-4-4 1-2 6 4 7 11v11l-3 5-7 5h-13l-8-6-7-11-1-12 4-10h-2l-6-6-3-8 1-6zm24 11l2 3-5 5v-7zm-44-5l3 7 2 13 6 102 5 24 9 27 4 19-1 22-5 11-5 5-1-2 2-2 4-15-1-18-7-22-2-2 5 25v14l-3 5-1-14-9-43-3-24-1-78-2-32zm68-1l2 1-1 8-2-5zm-20 6l2 2-1 2-3-1zm171-40l5 24-1 15-14 24-2 8-4-4-14-8 1-3 4 2-2-2 7-15-10-26-1-6 2-2 15 5 8-2-1-2-5 2-2-2 4-3 7-2zm-30 0l3-5 4-3 3 6 5 5-11 1-3-1zm34-4l-2 1-2-2v-3l-4-7-14-2 5-2 13-1 4-2 2 2v10zm-194-5v3l-5 11-8 9-17 11h-8l14-11 20-22 3-2zm178 1l2-1 2 4-3 1zm-154-19l1 3-7 17-3 17-3 4 3 6-1 3-3 2 4 1 3 5-3 1-2 3-5 1-2-2 1-2h-3l3-7-4-12v-5l4-6v-5l5-15 2-1 1 2-3 7-2 15 2-2 3-17zm-55-77l1 1-10 7-15 17-5 10-5 19v21l4 14 7 12 15 10-3 2h-4l-14-6-11-12-4-9-2-12 1-17 4-14 12-21 15-15zm80 36l-7 8-35 29-16 16-11 6-3-1 20-19-4-1-13 2-1-1 2-2 14-3 10-5 42-30zm17 109l8 16v10l2-3v-11l-2-4zm52-134l-33 11-16 8-20 15-2-1 13-17 11-6 27-9 12-2zm-2-6l-3 2-24 4-22 8-20 10-14 10-13 7-21 6 2 2h10v2l-22 7-2-1 10-12 20-19 22-15 15-7 18-6 12-2h18zm-171 47v17l-2 5-2-4v-11zm185-56l2-1 2 3-3 1zm-137-3l1 1-19 22-10 8-1-2 11-16 6-6zm9-12l8-5 14-4 30-2-9-2h-23l-13 4-3-1 4-4 14-7 17-1 23 9 25 13 10 8-3 1-19-8-24-5h-29l-19 5zm52 82l-6 7 6-4zm19-98l3-1 27 13 19 12-2 1zm-19 20l17-1 9 2 8 4h-14zm-50-26l-26 14-15 6-18 15-1-1 4-10 7-7 11-7 21-8 13-3zm161-4l9 6 5 1-7-7zm49 105l3 13-1-13zm-155-149l12-3 16-1 22 2 32 8 20 10-3 1-15-5-31-7zm-35-14l-19 10-12 10-2-1 16-15 12-5zm42 1l-1 2-15 1-21 5-14 5-8 5-2-1 17-13 17-7 11-1z"/>
	</g>
</svg>
